<?xml version="1.0" encoding="utf-8"?>
<!-- Generator: Adobe Illustrator 22.0.1, SVG Export Plug-In . SVG Version: 6.00 Build 0)  -->
<svg version="1.1" id="Layer_1" xmlns="http://www.w3.org/2000/svg" xmlns:xlink="http://www.w3.org/1999/xlink" x="0px" y="0px"
	 viewBox="0 0 152.6 48.7" style="enable-background:new 0 0 152.6 48.7;" xml:space="preserve">
<style type="text/css">
	.st0{fill:#1565C0;}
</style>
<g>
	<g>
		<path class="st0" d="M34.9,12.9c-1.9-1.9-5.2-1.9-7.1,0l-3.5,3.5l-3.5-3.5c-1-1-2.2-1.5-3.5-1.5s-2.6,0.6-3.5,1.5
			c-0.2,0.2-0.3,0.3-0.5,0.5c-1.5,1.9-1.4,4.8,0.5,6.5l10.6,10.6l10.5-10.6c1.7-1.7,1.9-4.6,0.4-6.5C35.2,13.2,35.1,13,34.9,12.9"/>
		<path class="st0" d="M32.6,0H16.3c-1.1,0-2,0.1-3.1,0.3c-1,0.2-2,0.5-3,0.9c-2,0.8-3.8,2-5.3,3.5c-1.6,1.7-2.7,3.4-3.5,5.4
			c-0.8,1.9-1.2,4-1.2,6.1s0.4,4.2,1.2,6.1c0.8,2,2,3.8,3.5,5.3l0,0l8.7,8.7c0.7,0.7,1.7,1.1,2.6,1.1c1,0,1.9-0.4,2.6-1.1
			c1.5-1.5,1.5-3.8,0-5.2l-8.7-8.7l0,0c-3.4-3.4-3.4-8.9,0-12.3c1.7-1.7,3.8-2.5,6.1-2.5h16.3c2,0,3.7-1.7,3.7-3.7
			C36.3,1.7,34.7,0,32.6,0"/>
		<path class="st0" d="M32.5,29.9c-1.1,0-1.9,0.4-2.6,1.1l0,0l-7.6,7.6c-0.3,0.3-0.6,0.5-0.9,0.8c-1.6,1.2-3.4,1.8-5.3,1.8
			c-2,0-4.2-0.8-5.7-2.2l-4-4c-0.4-0.4-0.8-0.7-1.3-0.9c-1.4-0.5-2.9-0.3-4,0.9c-1.1,1.1-1.4,2.6-0.9,4c0.2,0.5,0.5,0.9,0.8,1.3l0,0
			l0,0l3.6,3.6l0,0l0,0l0.6,0.4l0,0c1.5,1.4,3.1,2.4,5,3.2s4,1.2,6,1.2c2.1,0,4.2-0.4,6.1-1.2c2-0.8,3.8-2,5.3-3.6l7.6-7.6
			c0.7-0.7,1.1-1.7,1.1-2.6C36.3,31.6,34.7,29.9,32.5,29.9"/>
	</g>
	<g>
		<path class="st0" d="M75.7,41.2H68v-9.3c0-3.6-1.1-5.4-3.3-5.4c-0.7,0-1.4,0.3-2.1,0.9c-0.6,0.6-1.2,1.4-1.8,2.3
			c-0.6,0.9-1.2,1.8-1.9,2.7s-1.7,1.7-2.9,2.3s-2.7,0.9-4.4,0.9c-1.5,0-2.9-0.2-4.3-0.7v-6.3c1,0.3,2,0.4,3.2,0.4
			c0.7,0,1.4-0.2,2-0.6s1.1-0.8,1.4-1.1c0.3-0.4,0.8-1,1.4-1.9c0.6-0.9,1-1.5,1.3-1.8c-0.4-2.4-1.4-4.3-3-5.5
			c-1.6-1.2-3.5-1.9-5.9-1.9v-5.8h-3.2v-6h36v6.1h-4.7L75.7,41.2L75.7,41.2z M63,20.1c2.3,0,4,0.7,5,2.1V10.5H54.7
			c4.2,1.8,6.9,5,8.1,9.5H63V20.1z"/>
		<path class="st0" d="M105.6,10.5H78.2V4.4h27.4V10.5z M102.2,41.7h-10l-10-6.9v-6h5.5c2.5,0,4.4-0.5,5.6-1.6
			c1.3-1.1,1.9-2.5,1.9-4.4c0-1.2-0.3-2.2-1-2.8c-0.6-0.7-1.5-1-2.5-1s-1.8,0.3-2.5,1c-0.6,0.6-0.9,1.5-0.9,2.4c0,1,0.1,1.8,0.3,2.4
			h-7c-0.3-1.1-0.5-2.2-0.5-3.3c0-2.6,0.9-4.6,2.8-6.2s4.4-2.4,7.5-2.4c3.4,0,6.1,1,8.1,2.9s3.1,4.3,3.1,7.1c0,3.1-1,5.5-3,7.4
			c-2,1.8-4.6,3-7.9,3.5l10.5,7.2V41.7z"/>
		<path class="st0" d="M120.4,10.5h-4.7v30.6H108V13.9c0-1.4-0.2-2.3-0.6-2.8c-0.4-0.4-1.2-0.6-2.3-0.6h-1.8V4.4h2.7
			c1.2,0,2.1,0.6,2.7,1.9c-0.4-2-0.5-3.7-0.5-5.3V0h7.4v4.4h4.7v6.1H120.4z"/>
		<path class="st0" d="M152.6,10.5h-4.7v30.6h-7.7l-19.1-7.8l0.1-0.1V26l7.9-5.3l-7.7-4.5v-5.7h-3.2V4.4h34.4L152.6,10.5L152.6,10.5
			z M130.4,41.6c0.8,0.8,1.2,1.8,1.2,2.9c0,1.1-0.4,2.1-1.2,2.9c-0.8,0.8-1.8,1.2-2.9,1.2c-1.1,0-2.1-0.4-2.9-1.2
			c-0.8-0.8-1.2-1.8-1.2-2.9c0-1.1,0.4-2.1,1.2-2.9c0.8-0.8,1.8-1.2,2.9-1.2C128.6,40.3,129.5,40.8,130.4,41.6z M136.4,17.5V24
			l-7.2,5l11,4.8V10.5h-14.5L136.4,17.5z"/>
	</g>
</g>
</svg>
